PathFileType	4	(X/Y/Z)	/Users/niels/Desktop/University/Third Semester/Perception and Action/Exam/Gymnastics Motion Tracking/Code for Gym Tracking/Analyzed Data/Webcam_Backflip/id8_3_baseline_Sports2D/id8_3_baseline_Sports2D_px_person00.trc
DataRate	CameraRate	NumFrames	NumMarkers	Units	OrigDataRate	OrigDataStartFrame	OrigNumFrames
29.8125	29.8125	11	22	m	29.8125	60	160
Frame#	Time	Hip			RHip			RKnee			RAnkle			RBigToe			RSmallToe			RHeel			LHip			LKnee			LAnkle			LBigToe			LSmallToe			LHeel			Neck			Head			Nose			RShoulder			RElbow			RWrist			LShoulder			LElbow			LWrist		
		X1	Y1	Z1	X2	Y2	Z2	X3	Y3	Z3	X4	Y4	Z4	X5	Y5	Z5	X6	Y6	Z6	X7	Y7	Z7	X8	Y8	Z8	X9	Y9	Z9	X10	Y10	Z10	X11	Y11	Z11	X12	Y12	Z12	X13	Y13	Z13	X14	Y14	Z14	X15	Y15	Z15	X16	Y16	Z16	X17	Y17	Z17	X18	Y18	Z18	X19	Y19	Z19	X20	Y20	Z20	X21	Y21	Z21	X22	Y22	Z22
60	2.012578616352201	0.9707959459414116	-0.3196578341339835	0.0	0.9686084814170752	-0.3210032769820119	0.0	0.8996041512937067	-0.3249698312609861	0.0	0.9342557201881975	-0.2717309284409381	0.0	0.918088970260332	-0.250138719963272	0.0	0.9266951859524422	-0.2533201906114311	0.0	0.9387838097484776	-0.26375235864362884	0.0	0.9724811026795389	-0.3240251535521392	0.0	0.9100448442849682	-0.32076292189697525	0.0	0.9375121397480586	-0.2722062976708718	0.0	0.9027482735545918	-0.25233258105539347	0.0	0.9011031452582514	-0.24617811105482645	0.0	0.9451473904568726	-0.2590142507228889	0.0	0.9366977819315738	-0.4029376519647657	0.0	0.9301913649399368	-0.44199563606093123	0.0	0.9231412811939868	-0.4217279918631062	0.0	0.9369715772104787	-0.3860806582569758	0.0	0.9272106197328999	-0.3416667837890299	0.0	0.9216947363808448	-0.31751759388237805	0.0	0.9414942786863818	-0.39570747098620745	0.0	0.933425872870326	-0.35668790279662865	0.0	0.9223212945313387	-0.32722678185752385	0.0
61	2.0461215932914043	0.9587126816888517	-0.3128497958697025	0.0	0.954800781280841	-0.31517736041557515	0.0	0.8918227293161343	-0.354622923095229	0.0	0.89718596619439	-0.2902091908433853	0.0	0.8726866424442893	-0.2816479069178298	0.0	0.8804948019391706	-0.2822875149784866	0.0	0.8992103443936057	-0.27885216201364793	0.0	0.9622647172554452	-0.31789270083799465	0.0	0.9039454440849479	-0.3465247410568593	0.0	0.9021634110956328	-0.2910066957374003	0.0	0.8606205883755729	-0.28279278931475227	0.0	0.8603720775765072	-0.27673352676448026	0.0	0.9074221638758766	-0.2743299346278955	0.0	0.9592168145954454	-0.4084855482618841	0.0	0.9705875871556371	-0.44881340028983824	0.0	0.9545668599872992	-0.4355574074197337	0.0	0.9548871803947352	-0.39188936819559744	0.0	0.9260884767798203	-0.3547342837089114	0.0	0.918510563217375	-0.344631672569881	0.0	0.9618913019574539	-0.39899295905014964	0.0	0.9387325402773747	-0.3685374208976825	0.0	0.9231275631691606	-0.35362950627193035	0.0
62	2.079664570230608	0.9445126187319064	-0.31289052222280644	0.0	0.9391978077017445	-0.31575857524457923	0.0	0.8889703270741218	-0.38597459026693387	0.0	0.8645044497407478	-0.32284367608761444	0.0	0.8371213205675969	-0.3299345785808998	0.0	0.8426499263745175	-0.32788771487908436	0.0	0.8633978409567282	-0.30956906575022025	0.0	0.9494020885177203	-0.317960732323782	0.0	0.9015544236577437	-0.3754633120798616	0.0	0.8711606920920101	-0.32370910510212675	0.0	0.8285087552320609	-0.329110832302706	0.0	0.8294528294902631	-0.32261652877123204	0.0	0.8734845705389278	-0.30563258385105435	0.0	0.9797381117713313	-0.41040023004524195	0.0	1.007279180254999	-0.4475988191529061	0.0	0.9846445731943765	-0.4422978713657755	0.0	0.9710217180329763	-0.3951256584722514	0.0	0.9269749915135592	-0.36950870842432626	0.0	0.9176453096615029	-0.37531072048829683	0.0	0.9799848324296737	-0.3995664575488493	0.0	0.9444684361660852	-0.3810520219674987	0.0	0.926257288332667	-0.3819354020872287	0.0
63	2.113207547169811	0.9296321397667052	-0.3216798425813007	0.0	0.9234288675057646	-0.3244306217304587	0.0	0.8896646811569194	-0.41732473245051716	0.0	0.8399768594416237	-0.3694996920597151	0.0	0.8163131008583498	-0.3921087434052151	0.0	0.8182973937340994	-0.38793055201296106	0.0	0.8352887072473543	-0.3563081702508304	0.0	0.9351322488749911	-0.3261338980073237	0.0	0.9016918232131721	-0.4064112679082701	0.0	0.8477981558605614	-0.36990299028686674	0.0	0.8115743181632032	-0.3889650893409045	0.0	0.8128826834321788	-0.38119886258329594	0.0	0.8464501534248883	-0.35290019602213546	0.0	0.9959982974602009	-0.4092427348263762	0.0	1.0366978175955528	-0.4395147800117753	0.0	1.0101716836451984	-0.4420388570048233	0.0	0.9836398615742635	-0.3961806250304832	0.0	0.9312318929876053	-0.38588742707097645	0.0	0.9210223716273304	-0.4083129935796591	0.0	0.993725296022302	-0.39822432665138185	0.0	0.9511360643326093	-0.3947820394477791	0.0	0.9330315488375583	-0.4109510333928869	0.0
64	2.1467505241090143	0.9155563186873249	-0.340100337690408	0.0	0.9091623554525927	-0.3421853943398748	0.0	0.8919296473124143	-0.4485408638228754	0.0	0.8262912044326252	-0.4279117568390038	0.0	0.8120312955746569	-0.4627443673585105	0.0	0.8100219402084455	-0.45762518546491043	0.0	0.8179619481956919	-0.41703584146610667	0.0	0.9209389737760819	-0.34347773311857444	0.0	0.9025387261028535	-0.4390418168954725	0.0	0.8340784160901625	-0.4271463939052005	0.0	0.8108635075508301	-0.45766926206730163	0.0	0.8112186765471244	-0.4483244786370339	0.0	0.828418330673443	-0.413673781783104	0.0	1.006310679654123	-0.40657769390082454	0.0	1.0568499484260931	-0.4273280351539678	0.0	1.0287812812460755	-0.43681222575647954	0.0	0.9913798814263497	-0.39639552664632405	0.0	0.9391044724022273	-0.40308013286616545	0.0	0.930191394775771	-0.44031997100791254	0.0	1.0016277642853644	-0.39644796587173714	0.0	0.9590805397900087	-0.40957549728947035	0.0	0.9445420763510857	-0.43854080462333117	0.0
65	2.180293501048218	0.9035873481642485	-0.3677742850352223	0.0	0.8977896687307312	-0.3689586220256632	0.0	0.894078686852216	-0.48080854108211674	0.0	0.824011813748661	-0.49357893465854297	0.0	0.8220287160098163	-0.5351785749936722	0.0	0.8165304331219648	-0.5304508976880343	0.0	0.8125436880988799	-0.48693372551325365	0.0	0.908317453178381	-0.3698853849367367	0.0	0.902313173065211	-0.47370221412195385	0.0	0.8302205569493883	-0.49114057613429946	0.0	0.8234680696264624	-0.5290436134374179	0.0	0.8215481814530483	-0.5188532176873244	0.0	0.8202908835084646	-0.48297139526560035	0.0	1.0097829989932492	-0.40466265384508443	0.0	1.0670869361627937	-0.4147469692387724	0.0	1.0391106154433374	-0.42996561158054697	0.0	0.9934562352930336	-0.39782226547702904	0.0	0.9497841761760453	-0.41977677962490934	0.0	0.9456821922929814	-0.46661381242373473	0.0	1.0030782265744105	-0.39619086670659726	0.0	0.9682728601369939	-0.4243151937233909	0.0	0.9609868013317039	-0.46165928067071893	0.0
66	2.213836477987421	0.8946532008246056	-0.4034141432471138	0.0	0.8900739905027937	-0.403760213889497	0.0	0.8955604638502053	-0.5157584238783152	0.0	0.8311644767960013	-0.5611216807448152	0.0	0.8408847786510587	-0.6038261789007544	0.0	0.8330078642982649	-0.600454580583584	0.0	0.8175378557268005	-0.5597981918733238	0.0	0.8984643613708533	-0.4042746346377929	0.0	0.900608849586754	-0.511038778202227	0.0	0.8346962770787836	-0.5570149063494977	0.0	0.8439585467628491	-0.5975069074998006	0.0	0.8390890403315028	-0.5878742629319816	0.0	0.8214089753198232	-0.5548746905022266	0.0	1.006423160969302	-0.4059643871109802	0.0	1.067560288028709	-0.40517301959037016	0.0	1.0407907621148542	-0.42492987506609337	0.0	0.9898367772703478	-0.4027203012316474	0.0	0.9617579423956076	-0.434719405531503	0.0	0.9662566259640653	-0.48321067941368323	0.0	0.9984143816808064	-0.39963268627502174	0.0	0.9779396263341664	-0.437382864015235	0.0	0.9808071530871106	-0.4770094997663746	0.0
67	2.2473794549266244	0.8891563532610126	-0.44521779346975743	0.0	0.8860243318649587	-0.44491800876090604	0.0	0.8968469428981914	-0.5542661400542777	0.0	0.8438154857528634	-0.6258085235464608	0.0	0.8620922458097366	-0.6653728787836465	0.0	0.8530451086317755	-0.663781165932808	0.0	0.8291645647123036	-0.6298304782886818	0.0	0.8920345471207104	-0.4449690673735485	0.0	0.8986878261138087	-0.5513764320371743	0.0	0.8446049226304305	-0.6205287131810971	0.0	0.8660908435433888	-0.6594871788827341	0.0	0.8586526363341749	-0.6516123671802255	0.0	0.8293085609377511	-0.6240851922265082	0.0	0.9971004740223536	-0.4126851456564231	0.0	1.058960864009284	-0.4009262973620806	0.0	1.0343958368099166	-0.4243326073561542	0.0	0.9812763352370676	-0.4130042711505656	0.0	0.9729556321375351	-0.44719588333662247	0.0	0.9885105625584746	-0.4885089585364809	0.0	0.9887422196811526	-0.4088108701382906	0.0	0.986279221460768	-0.4477037163943844	0.0	1.0003949869581075	-0.48236497662537353	0.0
68	2.280922431865828	0.8868164006471417	-0.4909053982899131	0.0	0.8849881082851984	-0.4901721582816176	0.0	0.8986784137749849	-0.5957630613378202	0.0	0.8574018902190159	-0.6843474153945913	0.0	0.8803074454676111	-0.7185906641565196	0.0	0.8710058296399426	-0.7187479301811365	0.0	0.8427181908115625	-0.6927832704564758	0.0	0.8889087998381963	-0.48979100590170294	0.0	0.898133641651131	-0.5940810520499881	0.0	0.856322714337694	-0.6786593761128071	0.0	0.8846806086630287	-0.7135000990155886	0.0	0.8758651721242843	-0.7079115487564479	0.0	0.8402855469366654	-0.6866805488265482	0.0	0.9833869822992923	-0.4261963004998482	0.0	1.0426807516421155	-0.4032108257690211	0.0	1.0213916654079864	-0.42968353569330836	0.0	0.9691947657614879	-0.4296829708073382	0.0	0.9810604969557561	-0.4572634160283153	0.0	1.0074677690317762	-0.4837714846960393	0.0	0.975593266516525	-0.42491078584756287	0.0	0.9908664974562501	-0.4555633892002594	0.0	1.0150813675889394	-0.4782515826782587	0.0
69	2.314465408805031	0.8867549078086168	-0.537586505439029	0.0	0.8859010801198007	-0.5366526278388513	0.0	0.9013449417349287	-0.63821121787535	0.0	0.8682299618134319	-0.7347745438526581	0.0	0.892723439119332	-0.7633988939649319	0.0	0.8836316790189026	-0.7649949852239873	0.0	0.854289315636256	-0.746129433779825	0.0	0.8882273769645743	-0.5358964518060623	0.0	0.8995090645509333	-0.6372287489264657	0.0	0.8664926304853108	-0.7294879545912866	0.0	0.8969553071914322	-0.7592769081294942	0.0	0.8880212309557144	-0.7559551535849914	0.0	0.8506927564598726	-0.740197994723683	0.0	0.9673329585944304	-0.4464121380240047	0.0	1.0211013962872595	-0.4121956351794938	0.0	1.0040322772365962	-0.44128611134963613	0.0	0.9554078349940365	-0.45229093784124946	0.0	0.98425771667443	-0.46570185121599095	0.0	1.0184089186615994	-0.47275900914070956	0.0	0.9606590231913549	-0.4474887034106411	0.0	0.9898117739125295	-0.46251916482151706	0.0	1.0210636622494322	-0.4683713686344801	0.0
70	2.3480083857442344	0.8878703680222838	-0.5817840375614298	0.0	0.8876121216610252	-0.5808601902419988	0.0	0.9043844656318965	-0.6784373206673117	0.0	0.8745040220884223	-0.7758938982211363	0.0	0.8990802101208724	-0.7998228383845248	0.0	0.8902944268489855	-0.802446004810846	0.0	0.861883614771004	-0.7885927533209653	0.0	0.8888486838813052	-0.5797642526633439	0.0	0.9021670229094902	-0.6777901612283682	0.0	0.8730527724965246	-0.7716534300053796	0.0	0.902619967147025	-0.7966990044058359	0.0	0.8943401510327349	-0.7953320150315982	0.0	0.8581447834610584	-0.7832365139874441	0.0	0.9511225669592042	-0.47137101550714505	0.0	0.9975789890845186	-0.426794046449015	0.0	0.9851630934423672	-0.458081186265403	0.0	0.9416970812274269	-0.4785193535976354	0.0	0.9818934900968067	-0.47347538127032723	0.0	1.019024213081516	-0.46026144404811903	0.0	0.9456676720028031	-0.47411975599886336	0.0	0.9828975169361932	-0.4702078104435949	0.0	1.0171291931037907	-0.4576951289526334	0.0
